<svg version="1.1" id="_x32_" xmlns="http://www.w3.org/2000/svg" viewBox="0 0 512 512" xml:space="preserve"><style>.st0{fill:#000}</style><path class="st0" d="M0 .005v511.991h512V.005H0zm475.859 475.85H36.141V111.427h439.718v364.428z"/><path class="st0" d="M295.154 309.893h138.537V428.86H295.154zM78.308 311.693h162.625v18.071H78.308zM78.308 408.99h162.625v18.07H78.308zM78.308 360.346h162.625v18.07H78.308zM80.594 268.538h36.415c20.752 0 33.317-9.035 33.317-27.953 0-11.426-6.494-19.341-12.847-21.741v-.283c6.353-3.529 11.153-10.023 11.153-20.461 0-15.256-9.742-25.552-30.627-25.552H80.594c-.838 0-1.403.565-1.403 1.411v93.159c-.001.855.564 1.42 1.403 1.42zm19.35-78.353c0-.556.264-.846.847-.846h14.682c7.897 0 12.555 4.094 12.555 11.144 0 7.067-4.658 11.302-12.555 11.302h-14.682c-.583 0-.847-.282-.847-.846v-20.754zm0 38.391c0-.556.264-.838.847-.838h15.794c8.489 0 12.997 4.658 12.997 12.009 0 7.473-4.508 12-12.997 12h-15.794c-.583 0-.847-.291-.847-.856v-22.315zM178.048 268.538h62.55c.839 0 1.403-.565 1.403-1.42v-15.662c0-.857-.564-1.412-1.403-1.412h-42.352c-.574 0-.848-.282-.848-.856v-75.229c0-.846-.556-1.411-1.411-1.411h-17.939c-.846 0-1.402.565-1.402 1.411v93.159c0 .855.556 1.42 1.402 1.42zM295.127 270.082c16.809 0 30.071-7.756 35.012-23.286 2.118-6.634 2.674-12 2.674-26.258 0-14.259-.556-19.624-2.674-26.259-4.94-15.52-18.202-23.285-35.012-23.285-16.799 0-30.07 7.765-35.002 23.285-2.126 6.635-2.691 12-2.691 26.259 0 14.258.565 19.624 2.691 26.258 4.932 15.531 18.203 23.286 35.002 23.286zm-15.105-70.156c2.117-6.634 7.208-10.587 15.105-10.587 7.906 0 12.988 3.953 15.106 10.587 1.129 3.397 1.553 8.039 1.553 20.612 0 12.555-.424 17.223-1.553 20.603-2.118 6.644-7.2 10.606-15.106 10.606-7.897 0-12.988-3.962-15.105-10.606-1.121-3.38-1.553-8.048-1.553-20.603 0-12.573.432-17.215 1.553-20.612zM395.424 270.082c16.932 0 30.203-8.603 35.012-24 1.685-5.214 2.383-13.12 2.383-21.59v-7.915c0-.83-.565-1.403-1.403-1.403H398.39c-.857 0-1.421.574-1.421 1.403v13.571c0 .838.564 1.402 1.421 1.402h12.979c.564 0 .846.292.846.847 0 4.085-.424 7.058-1.129 9.467-1.976 6.345-8.188 9.883-15.388 9.883-8.33 0-13.562-3.962-15.68-10.606-1.12-3.38-1.544-8.048-1.544-20.603 0-12.574.424-17.082 1.544-20.47 2.118-6.636 7.209-10.729 15.406-10.729 7.897 0 12.688 3.388 16.509 9.882.282.706.988.988 1.985.706l15.097-6.352c.839-.424.998-1.27.565-2.126-4.526-11.577-16.235-20.453-34.156-20.453-17.091 0-30.361 7.765-35.302 23.285-2.118 6.635-2.692 12-2.692 26.259 0 14.258.574 19.624 2.692 26.258 4.941 15.529 18.211 23.284 35.302 23.284z"/></svg>
