<svg width="23" height="14" xmlns="http://www.w3.org/2000/svg"><path d="M22.003 6.496C19.689 2.596 16.19.633 11.5.633 6.808.633 3.312 2.596.997 6.498a.986.986 0 0 0-.14.503c0 .174.047.346.14.503 2.315 3.9 5.813 5.863 10.503 5.863 4.692 0 8.189-1.963 10.503-5.865a.967.967 0 0 0 0-1.006zM11.5 11.961C7.562 11.96 4.68 10.363 2.645 7 4.68 3.637 7.562 2.04 11.5 2.04c3.938 0 6.821 1.597 8.855 4.96-2.031 3.363-4.915 4.96-8.855 4.96zm-.098-8.399C9.03 3.563 7.106 5.103 7.106 7c0 1.898 1.923 3.438 4.296 3.438S15.7 8.898 15.7 7c0-1.898-1.924-3.438-4.296-3.438zm0 5.626c-1.51 0-2.734-.979-2.734-2.188s1.223-2.188 2.735-2.188c1.51 0 2.734.979 2.734 2.188s-1.223 2.188-2.735 2.188z" /></svg>
