<svg width="20" height="20" fill="none" xmlns="http://www.w3.org/2000/svg"><path d="m19.775 12.616-2.083-1.867V8.276c-.002-1.71-.711-3.357-1.99-4.624-1.279-1.268-3.036-2.065-4.933-2.238V0H9.231v1.414c-1.897.173-3.654.97-4.933 2.238-1.279 1.267-1.988 2.915-1.99 4.624v2.473L.225 12.616a.656.656 0 0 0-.225.487v2.07c0 .182.081.357.225.487.145.13.34.202.544.202h5.385v.536c-.017.875.327 1.724.966 2.386.639.662 1.527 1.088 2.495 1.2a4.27 4.27 0 0 0 1.585-.157c.51-.151.98-.396 1.379-.72.398-.322.717-.717.935-1.157a3.15 3.15 0 0 0 .332-1.398v-.69h5.385c.204 0 .4-.073.544-.202a.655.655 0 0 0 .225-.488v-2.069a.655.655 0 0 0-.225-.487zm-7.467 3.936c0 .548-.243 1.074-.676 1.462A2.45 2.45 0 0 1 10 18.62a2.45 2.45 0 0 1-1.632-.606 1.967 1.967 0 0 1-.676-1.462v-.69h4.616v.69zm6.154-2.07H1.538V13.39l2.083-1.867a.656.656 0 0 0 .225-.488V8.276c0-1.463.649-2.867 1.803-3.901C6.803 3.34 8.368 2.759 10 2.759c1.632 0 3.197.58 4.351 1.616 1.154 1.034 1.803 2.438 1.803 3.9v2.76c0 .182.081.358.225.487l2.082 1.867v1.094z" fill="#000"/></svg>