<svg width="28" height="29" fill="none" xmlns="http://www.w3.org/2000/svg"><path d="M24.749 23.93A13.99 13.99 0 1 0 0 15c0 3.266 1.152 6.428 3.251 8.93l-.02.017c.07.084.15.156.222.239.09.103.187.2.28.3.28.304.568.596.87.87.092.084.187.162.28.242.32.276.649.538.99.782.044.03.084.069.128.1v-.012a13.9 13.9 0 0 0 16 0v.012c.044-.031.083-.07.128-.1.34-.245.67-.506.99-.782.093-.08.188-.159.28-.242.302-.275.59-.566.87-.87.093-.1.189-.197.28-.3.071-.083.152-.155.222-.24l-.022-.016zM14 7a4.5 4.5 0 1 1 0 9 4.5 4.5 0 0 1 0-9zM6.007 23.93A4.996 4.996 0 0 1 11 19h6a4.996 4.996 0 0 1 4.993 4.93 11.94 11.94 0 0 1-15.986 0z" fill="#000"/></svg>